HIERARCHY
ROOT Hips
{
	OFFSET 0.000000 0.000000 0.000000
	CHANNELS 6 Xposition Yposition Zposition Xrotation Yrotation Zrotation
	JOINT LeftUpLeg_virtual
	{
		OFFSET 0.000000 0.000000 0.000000
		CHANNELS 3 Xrotation Yrotation Zrotation
		JOINT LeftUpLeg
		{
			OFFSET 10.205400 -3.823500 0.155100
			CHANNELS 3 Xrotation Yrotation Zrotation
			JOINT LeftLeg
			{
				OFFSET 0.708757 -12.982077 0.567790
				CHANNELS 3 Xrotation Yrotation Zrotation
				JOINT LeftFoot
				{
					OFFSET -0.708756 -10.717838 -2.184338
					CHANNELS 3 Xrotation Yrotation Zrotation
					JOINT LeftToeBase
					{
						OFFSET 0.108149 -7.191104 7.560241
						CHANNELS 3 Xrotation Yrotation Zrotation
						JOINT LeftToe_End
						{
							OFFSET 0.070230 0.081724 4.490308
							CHANNELS 3 Xrotation Yrotation Zrotation
							End Site
							{
								OFFSET 0 0 0
							}
						}
					}
				}
			}
		}
	}
	JOINT RightUpLeg_virtual
	{
		OFFSET 0.000000 0.000000 0.000000
		CHANNELS 3 Xrotation Yrotation Zrotation
		JOINT RightUpLeg
		{
			OFFSET -10.205400 -3.823500 0.005500
			CHANNELS 3 Xrotation Yrotation Zrotation
			JOINT RightLeg
			{
				OFFSET -0.708756 -12.982134 0.610632
				CHANNELS 3 Xrotation Yrotation Zrotation
				JOINT RightFoot
				{
					OFFSET 0.708754 -10.717769 -1.945823
					CHANNELS 3 Xrotation Yrotation Zrotation
					JOINT RightToeBase
					{
						OFFSET -0.108140 -7.191069 7.372968
						CHANNELS 3 Xrotation Yrotation Zrotation
						JOINT RightToe_End
						{
							OFFSET -0.070227 0.081735 4.479403
							CHANNELS 3 Xrotation Yrotation Zrotation
							End Site
							{
								OFFSET 0 0 0
							}
						}
					}
				}
			}
		}
	}
	JOINT Spine_virtual
	{
		OFFSET 0.000000 0.000000 0.000000
		CHANNELS 3 Xrotation Yrotation Zrotation
		JOINT Spine
		{
			OFFSET 0.000000 6.876099 0.125700
			CHANNELS 3 Xrotation Yrotation Zrotation
			JOINT Spine1
			{
				OFFSET 0.000000 5.730043 0.104720
				CHANNELS 3 Xrotation Yrotation Zrotation
				JOINT Spine1_split
				{
					OFFSET 0.000000 5.730043 0.104720
					CHANNELS 3 Xrotation Yrotation Zrotation
					JOINT Spine2
					{
						OFFSET 0.000000 5.730043 0.104720
						CHANNELS 3 Xrotation Yrotation Zrotation
						JOINT Neck_virtual
						{
							OFFSET 0.000000 0.000000 0.000000
							CHANNELS 3 Xrotation Yrotation Zrotation
							JOINT Neck
							{
								OFFSET 0.000000 10.314075 0.188496
								CHANNELS 3 Xrotation Yrotation Zrotation
								JOINT Head
								{
									OFFSET 0.000000 7.643700 -2.377400
									CHANNELS 3 Xrotation Yrotation Zrotation
									JOINT HeadTop_End
									{
										OFFSET 0.000000 43.788605 -13.619600
										CHANNELS 3 Xrotation Yrotation Zrotation
										End Site
										{
											OFFSET 0 0 0
										}
									}
								}
							}
						}
						JOINT LeftShoulder_virtual
						{
							OFFSET 0.000000 0.000000 0.000000
							CHANNELS 3 Xrotation Yrotation Zrotation
							JOINT LeftShoulder
							{
								OFFSET 2.196100 4.412489 0.087492
								CHANNELS 3 Xrotation Yrotation Zrotation
								JOINT LeftShoulder_split
								{
									OFFSET 2.196100 4.412489 0.087492
									CHANNELS 3 Xrotation Yrotation Zrotation
									JOINT LeftArm
									{
										OFFSET 8.771219 -2.981674 -0.026999
										CHANNELS 3 Xrotation Yrotation Zrotation
										JOINT LeftForeArm
										{
											OFFSET 8.512804 0.000000 -0.000000
											CHANNELS 3 Xrotation Yrotation Zrotation
											JOINT LeftHand
											{
												OFFSET 18.484802 0.000000 -0.000000
												CHANNELS 3 Xrotation Yrotation Zrotation
												End Site
												{
													OFFSET 0 0 0
												}
											}
										}
									}
								}
							}
						}
						JOINT RightShoulder_virtual
						{
							OFFSET 0.000000 0.000000 0.000000
							CHANNELS 3 Xrotation Yrotation Zrotation
							JOINT RightShoulder
							{
								OFFSET -2.196100 4.412496 0.070690
								CHANNELS 3 Xrotation Yrotation Zrotation
								JOINT RightShoulder_split
								{
									OFFSET -2.196100 4.412496 0.070690
									CHANNELS 3 Xrotation Yrotation Zrotation
									JOINT RightArm
									{
										OFFSET -8.771282 -2.981682 -0.094208
										CHANNELS 3 Xrotation Yrotation Zrotation
										JOINT RightForeArm
										{
											OFFSET -8.494598 0.000000 0.000000
											CHANNELS 3 Xrotation Yrotation Zrotation
											JOINT RightHand
											{
												OFFSET -18.483803 0.000000 0.000001
												CHANNELS 3 Xrotation Yrotation Zrotation
												End Site
												{
													OFFSET 0 0 0
												}
											}
										}
									}
								}
							}
						}
					}
				}
			}
		}
	}
}
MOTION
Frames: 5
Frame Time: 0.03333333
-1.113630 28.017534 -0.865641 0.000000 0.000000 0.000000 12.041743 -4.691632 -0.273093 8.530155 -3.728998 12.018752 49.778118 -3.296421 18.367997 -41.572127 3.310799 -13.498180 -15.828449 0.027257 3.951361 0.000000 0.000000 0.000000 15.721948 -0.336361 -1.302140 -57.943561 0.471806 -0.595736 67.377494 -1.439318 0.120647 -13.977150 7.997422 -12.893468 -1.414570 1.777111 -2.205959 0.000000 0.000000 0.000000 12.293012 -2.824163 -0.521554 -1.640822 -5.799312 2.709094 2.864030 -2.137008 2.547398 0.978547 -1.784431 -0.243425 0.000000 0.000000 0.000000 2.534415 -2.646605 3.044372 -5.729479 1.889252 -1.141981 -17.230450 -9.275628 7.406567 0.000000 0.000000 0.000000 3.185580 -2.559499 1.891598 -0.216933 3.411974 -1.871588 -3.822877 2.910430 -2.644127 -18.199486 6.976602 -60.202517 -173.549547 -73.724345 -170.869504 0.000000 0.000000 0.000000 4.865107 -1.657733 2.814514 0.281037 -9.201679 16.260153 0.440055 5.878246 0.281015 -27.810089 8.231443 55.265502 -174.217348 56.794645 172.955444 0.000000 0.000000 0.000000 
-1.260944 28.503862 -0.963354 0.000000 0.000000 0.000000 12.234721 -3.096112 -0.142987 6.878260 -4.154307 10.421971 48.748679 -0.769975 16.019515 -33.846196 3.062965 -9.323476 -12.968926 0.654526 2.057935 0.000000 0.000000 0.000000 14.789117 -1.428490 -0.937621 -55.936008 0.171808 -2.438685 64.800907 -1.618162 0.232570 -14.411228 8.098486 -11.560860 -1.583988 1.958028 -2.153312 0.000000 0.000000 0.000000 12.102521 -3.407123 -0.281907 -1.354986 -5.573760 3.440187 2.819889 -2.129129 2.258596 0.530370 -1.007973 -0.846246 0.000000 0.000000 0.000000 2.716945 -2.537359 2.689057 -5.200202 2.041013 -1.510023 -16.450036 -8.951240 7.809603 0.000000 0.000000 0.000000 3.367248 -2.541244 1.705478 -0.186158 2.165734 -1.288081 -3.590987 1.506678 -1.645328 -22.120082 5.501625 -59.950012 -172.846693 -74.829531 -170.128442 0.000000 0.000000 0.000000 4.998983 -1.566924 2.572871 0.321603 -8.671285 15.892513 -0.736789 5.777428 -0.664619 -31.629356 9.963467 54.871940 -175.118455 55.125740 173.769875 0.000000 0.000000 0.000000 
-1.168605 29.331409 -1.139088 0.000000 0.000000 0.000000 11.867724 -0.571491 -0.396894 1.721245 -1.590139 9.297230 48.112201 1.702007 12.111208 -14.654260 2.278406 -5.016472 -1.932160 0.946090 0.150812 0.000000 0.000000 0.000000 13.543078 -1.169482 -0.996580 -50.799190 0.324867 -3.847324 58.372238 -1.361315 0.021096 -13.441246 7.535719 -9.921380 -0.846259 1.802902 -1.268976 0.000000 0.000000 0.000000 11.347974 -3.053596 -0.111958 -0.417998 -4.761186 4.375467 2.717127 -1.943678 1.606973 0.415282 -0.002034 -0.992771 0.000000 0.000000 0.000000 2.752336 -2.238408 1.940435 -4.336487 2.053545 -1.895047 -14.766406 -8.558549 8.252957 0.000000 0.000000 0.000000 3.465083 -2.254932 1.254830 -0.118216 0.091125 -0.715626 -2.837750 0.853281 -1.017380 -28.696087 1.843258 -58.773607 -170.763240 -77.750605 -168.094412 0.000000 0.000000 0.000000 5.043530 -1.389444 1.968340 0.393375 -8.030407 14.704595 -1.015119 4.499029 -0.649998 -38.858060 13.173541 54.270084 -175.405897 56.118535 174.046908 0.000000 0.000000 0.000000 
-0.750243 30.347866 -1.325144 0.000000 0.000000 0.000000 11.070105 1.302487 -0.952578 -5.652051 2.825504 9.338591 49.094566 3.256250 8.081254 12.314355 1.588057 -1.864521 8.749850 0.705316 0.165154 0.000000 0.000000 0.000000 12.175422 0.646055 -1.606441 -43.333056 0.705307 -4.261920 50.323003 -0.933829 0.031698 -10.417982 6.218687 -8.355346 -1.090481 1.215439 0.155691 0.000000 0.000000 0.000000 10.096247 -1.542084 -0.208849 1.124842 -3.569774 5.261615 2.734511 -1.619816 0.861463 0.350822 0.859059 -0.473821 0.000000 0.000000 0.000000 2.765908 -1.799120 1.158633 -3.355686 2.006306 -2.291562 -12.618815 -8.085837 8.670671 0.000000 0.000000 0.000000 3.575926 -1.801015 0.798362 -0.015830 -2.459632 -0.094833 -2.247861 1.111217 -0.805266 -36.993213 -3.255033 -57.606826 -165.189081 -82.286219 -162.699095 0.000000 0.000000 0.000000 5.085897 -1.159235 1.274416 0.412428 -7.407804 12.624935 -0.741518 2.730585 -0.272590 -47.945199 16.916548 54.256468 -175.208026 59.999305 173.957624 0.000000 0.000000 0.000000 
-0.252613 31.345993 -1.339025 0.000000 0.000000 0.000000 9.547492 2.106118 -1.482453 -14.554957 7.176711 10.254635 52.777288 4.223293 5.083231 36.006698 1.267228 1.947587 13.219764 0.451318 2.578328 0.000000 0.000000 0.000000 10.608981 3.428246 -2.511810 -35.871290 1.031256 -3.592805 43.051280 -0.287507 0.467078 -5.527890 4.672431 -5.944368 -3.808957 0.257154 1.477652 0.000000 0.000000 0.000000 8.548793 0.853942 -0.594887 3.123415 -2.271566 5.859034 3.014405 -1.258436 0.317917 0.496820 1.106793 0.233089 0.000000 0.000000 0.000000 2.902015 -1.343501 0.664217 -2.414647 1.921792 -2.646800 -10.385377 -7.588318 9.065485 0.000000 0.000000 0.000000 3.841139 -1.319648 0.584407 0.098135 -5.011023 0.891479 -2.073658 1.737646 -0.976842 -46.453503 -8.967236 -57.288355 -132.689962 -87.413512 -130.435836 0.000000 0.000000 0.000000 5.167400 -0.944134 0.803157 0.346265 -6.931445 9.513427 -0.342239 1.304047 -0.102773 -57.788748 20.048951 55.183496 -174.301838 66.752655 173.276476 0.000000 0.000000 0.000000 
